<?xml version="1.0" encoding="UTF-8"?> <svg xmlns="http://www.w3.org/2000/svg" viewBox="0 0 633 289.68"><g id="Layer_2" data-name="Layer 2"><g id="Layer_1-2" data-name="Layer 1"><path d="M490.47,21.6c-4.25-2.21-8.42-4.6-12.77-6.61-15.36-7.07-31.56-9.68-48.4-9.12-22.51.77-43.48,7.24-63.74,16.62-24.42,11.3-46.17,26.71-67.2,43.28C284.08,77,269.78,88.24,255.23,99.13a140.91,140.91,0,0,1-36.08,20c-14,5.12-28.47,7.7-43.43,5.57-6-.85-11.87-2.2-17.8-3.33-.18,0-.33-.22-.4-.76,1.6.25,3.2.53,4.81.74a101.52,101.52,0,0,0,62.76-11c13.3-7.07,25.18-16.13,36.85-25.51,14.72-11.85,29.17-24.06,44.11-35.63a285.32,285.32,0,0,1,53.08-32.58A180.85,180.85,0,0,1,401.8,2.34,123.67,123.67,0,0,1,440.58.9,102.78,102.78,0,0,1,480.4,14.13c3.62,2.11,7,4.66,10.47,7Z"></path><path d="M29.3,174c2.22,1.41,4.43,2.85,6.67,4.24a125.58,125.58,0,0,0,42.4,16.47A149,149,0,0,0,125,196.45a127.85,127.85,0,0,0,29.28-7.09c22.26-8.19,41.39-21.45,59.18-36.79,9.44-8.15,18.54-16.71,27.72-25.16A194.43,194.43,0,0,1,294.47,93a208,208,0,0,1,42.66-13.61c2.4-.5,4.83-.81,7.25-1.2l.16.66c-2.28.72-4.57,1.44-6.86,2.14a246.26,246.26,0,0,0-47.36,19.88,207,207,0,0,0-42.6,30.89c-9.86,9.34-19.49,18.93-29.66,27.92-14.82,13.1-31,24.32-49.11,32.49a133.14,133.14,0,0,1-60.9,11.9c-22.76-.93-44.29-6.45-63.86-18.44-4.89-3-9.35-6.71-14-10.1-.45-.33-.85-.72-1.27-1.08Z"></path><path d="M.26,229.51c5.05,2.59,10,5.33,15.16,7.73,22.54,10.53,46.14,15.2,71.06,12.93a180.4,180.4,0,0,0,53.63-13.75,198.41,198.41,0,0,0,54.73-34.14c10.73-9.45,20.71-19.75,30.81-29.88,17.62-17.67,36.24-34.14,56.74-48.4,6.18-4.29,12.66-8.15,19-12.21l.44.63c-.87.72-1.72,1.47-2.62,2.14a443,443,0,0,0-52.44,46c-10.36,10.59-20.5,21.41-30.57,32.27a215.82,215.82,0,0,1-43.55,36.06,192.2,192.2,0,0,1-44.56,20.61c-19.92,6.31-40.32,9-61.17,7a126.67,126.67,0,0,1-42.76-12.06A131.83,131.83,0,0,1,1.47,231c-.51-.38-1-.82-1.47-1.23Z"></path><path d="M254,224.48c.37-2.11.66-4.24,1.13-6.32a210.92,210.92,0,0,1,15.14-43.31A229,229,0,0,1,306.72,120a250.79,250.79,0,0,1,48.63-41.91,336.5,336.5,0,0,1,38-22,233.33,233.33,0,0,1,37.28-14.49,185.7,185.7,0,0,1,47.19-7.61c2.76-.07,5.53,0,8.29,0l.1.88a35.3,35.3,0,0,1-3.78.69,176.25,176.25,0,0,0-38.59,7.57,274.9,274.9,0,0,0-61,27.35,336.26,336.26,0,0,0-54.05,39.39,264.62,264.62,0,0,0-56.69,72.63,228.28,228.28,0,0,0-16.41,38.86c-.34,1.11-.81,2.17-1.22,3.25Z"></path><path d="M490.45,86.22c-.82,1.5-1.63,3-2.47,4.5-5.94,10.58-11.34,21.4-14.86,33.06-3.43,11.33-4,22.51,1.47,33.48,3.65,7.39,9.6,11.93,17.21,14.59,7.09,2.49,14.48,3.29,21.89,4.05,11.83,1.21,23.74,1.72,35.33,4.72,9.77,2.53,18.18,7.15,24.15,15.5a40.25,40.25,0,0,1,6.92,17.34c.91,5.83,1.58,11.72,2,17.6A16.87,16.87,0,0,0,590,244.3c8,5.44,16.74,7.78,26.36,6.35a44.86,44.86,0,0,0,6-1.72l.34.6a33,33,0,0,1-4.44,2.49c-7,2.59-14,2.26-21.09.32s-13.29-5.21-17.71-11.31c-2.08-2.87-2.81-6.21-3.39-9.61-1.28-7.61-2-15.34-4.88-22.63-4-10.25-11.68-16.31-22.07-19.2-9.18-2.55-18.64-3.29-28.09-4.16s-19.13-1.87-28.47-4.53c-15.63-4.43-26-16.5-28-32.62-1.33-10.66,1.4-20.42,5.53-30A155.89,155.89,0,0,1,488.74,87a11,11,0,0,0,.83-1.51Z"></path><path d="M631.45,231.5c-.11-1-.26-2.07-.33-3.1-.72-10.65-4.15-20.56-8.26-30.27-7.34-17.37-16.48-33.83-26.05-50-5.81-9.86-11.59-19.75-17.88-29.3-5.57-8.46-11.66-16.59-17.8-24.66-9.55-12.53-19.33-24.89-29-37.33-.43-.55-.8-1.15-1.19-1.73l.37-.42c.79.64,1.63,1.23,2.38,1.92a505.82,505.82,0,0,1,36.68,37A261.94,261.94,0,0,1,608.82,151c5.29,10.72,10.62,21.46,15.15,32.5,5.19,12.64,9.14,25.73,9,39.64,0,2.78-.51,5.55-.78,8.33Z"></path><path d="M456.22,153.74c-.67.5-1.32,1-2,1.51C442,164,431.91,174.48,426,188.56c-4.25,10.14-5,20.77-4.65,31.6a286.2,286.2,0,0,0,5.81,49.33c1.22,5.78,2.6,11.53,3.89,17.3.2.88.28,1.78.42,2.67l-.59.22c-1.13-2.22-2.33-4.4-3.36-6.66a164.84,164.84,0,0,1-12.08-39.48,150.59,150.59,0,0,1-2.66-32c.79-22.07,10.53-39.3,28.93-51.48,3.8-2.52,8.09-4.31,12.18-6.4a10.71,10.71,0,0,1,2-.55Z"></path><path d="M498.73,39.46c2.69-2.18,5.18-4.67,8.11-6.47a114.6,114.6,0,0,1,13.5-7.16c6.18-2.74,10.9-7.19,15.47-11.95a71.72,71.72,0,0,1,7.56-7.24c4-3.08,8.1-1.43,9.38,3.45,1,3.78,0,7.44-1.12,11-2.72,8.18-6.82,15.5-14.37,20.29a28.82,28.82,0,0,1-14.91,4.57c5.11-3.15,10.45-6,14.23-10.8A37.65,37.65,0,0,0,543.81,19l-.65-.43a21.85,21.85,0,0,0-1.89,1.57A45.59,45.59,0,0,1,518.39,33c-5.9,1.42-11.48,4.17-17.21,6.33-.66.25-1.31.56-2,.84Z"></path></g></g></svg> 